<?xml version="1.0" encoding="UTF-8"?>
<svg version="1.1" xmlns="http://www.w3.org/2000/svg" width="687" height="687">
<path d="M0 0 C5.28 0 10.56 0 16 0 C16 5.28 16 10.56 16 16 C21.28 16 26.56 16 32 16 C32 21.28 32 26.56 32 32 C37.28 32 42.56 32 48 32 C48 48.17 48 64.34 48 81 C42.72 81 37.44 81 32 81 C32 91.23 32 101.46 32 112 C58.4 112 84.8 112 112 112 C112 106.72 112 101.44 112 96 C117.28 96 122.56 96 128 96 C128 90.72 128 85.44 128 80 C143.84 80 159.68 80 176 80 C176 74.72 176 69.44 176 64 C197.12 64 218.24 64 240 64 C240 69.28 240 74.56 240 80 C250.56 80 261.12 80 272 80 C272 85.28 272 90.56 272 96 C282.56 96 293.12 96 304 96 C304 101.28 304 106.56 304 112 C340.96 112 377.92 112 416 112 C416 117.28 416 122.56 416 128 C421.28 128 426.56 128 432 128 C432 144.17 432 160.34 432 177 C426.72 177 421.44 177 416 177 C416 182.28 416 187.56 416 193 C410.72 193 405.44 193 400 193 C400 198.28 400 203.56 400 209 C394.72 209 389.44 209 384 209 C384 214.28 384 219.56 384 225 C378.72 225 373.44 225 368 225 C368 230.28 368 235.56 368 241 C362.72 241 357.44 241 352 241 C352 251.56 352 262.12 352 273 C346.72 273 341.44 273 336 273 C336 283.56 336 294.12 336 305 C330.72 305 325.44 305 320 305 C320 310.28 320 315.56 320 321 C314.72 321 309.44 321 304 321 C304 326.28 304 331.56 304 337 C298.72 337 293.44 337 288 337 C288 342.28 288 347.56 288 353 C282.72 353 277.44 353 272 353 C272 358.28 272 363.56 272 369 C261.44 369 250.88 369 240 369 C240 374.28 240 379.56 240 385 C234.72 385 229.44 385 224 385 C224 421.63 224 458.26 224 496 C229.28 496 234.56 496 240 496 C240 533.29 240 570.58 240 609 C234.72 609 229.44 609 224 609 C224 614.28 224 619.56 224 625 C150.08 625 76.16 625 0 625 C0 619.72 0 614.44 0 609 C-10.56 609 -21.12 609 -32 609 C-32 603.72 -32 598.44 -32 593 C-63.68 593 -95.36 593 -128 593 C-128 587.72 -128 582.44 -128 577 C-138.56 577 -149.12 577 -160 577 C-160 571.72 -160 566.44 -160 561 C-165.28 561 -170.56 561 -176 561 C-176 555.72 -176 550.44 -176 545 C-181.28 545 -186.56 545 -192 545 C-192 534.44 -192 523.88 -192 513 C-197.28 513 -202.56 513 -208 513 C-208 502.44 -208 491.88 -208 481 C-213.28 481 -218.56 481 -224 481 C-224 454.27 -224 427.54 -224 400 C-218.72 400 -213.44 400 -208 400 C-208 384.16 -208 368.32 -208 352 C-202.72 352 -197.44 352 -192 352 C-192 346.72 -192 341.44 -192 336 C-186.72 336 -181.44 336 -176 336 C-176 330.72 -176 325.44 -176 320 C-170.72 320 -165.44 320 -160 320 C-160 314.72 -160 309.44 -160 304 C-154.72 304 -149.44 304 -144 304 C-144 298.72 -144 293.44 -144 288 C-133.44 288 -122.88 288 -112 288 C-112 282.72 -112 277.44 -112 272 C-85.6 272 -59.2 272 -32 272 C-32 277.28 -32 282.56 -32 288 C-26.72 288 -21.44 288 -16 288 C-16 293.61 -16 299.22 -16 305 C-21.28 305 -26.56 305 -32 305 C-32 315.23 -32 325.46 -32 336 C-26.72 336 -21.44 336 -16 336 C-16 346.56 -16 357.12 -16 368 C-10.72 368 -5.44 368 0 368 C0 373.28 0 378.56 0 384 C10.56 384 21.12 384 32 384 C32 378.72 32 373.44 32 368 C42.56 368 53.12 368 64 368 C64 362.72 64 357.44 64 352 C74.56 352 85.12 352 96 352 C96 341.77 96 331.54 96 321 C90.72 321 85.44 321 80 321 C80 315.72 80 310.44 80 305 C74.72 305 69.44 305 64 305 C64 299.72 64 294.44 64 289 C58.72 289 53.44 289 48 289 C48 278.44 48 267.88 48 257 C42.72 257 37.44 257 32 257 C32 241.16 32 225.32 32 209 C26.72 209 21.44 209 16 209 C16 182.6 16 156.2 16 129 C0.16 129 -15.68 129 -32 129 C-32 123.72 -32 118.44 -32 113 C-37.28 113 -42.56 113 -48 113 C-48 107.72 -48 102.44 -48 97 C-53.28 97 -58.56 97 -64 97 C-64 86.11 -64 75.22 -64 64 C-58.72 64 -53.44 64 -48 64 C-48 58.72 -48 53.44 -48 48 C-42.72 48 -37.44 48 -32 48 C-32 42.72 -32 37.44 -32 32 C-26.72 32 -21.44 32 -16 32 C-16 26.72 -16 21.44 -16 16 C-10.72 16 -5.44 16 0 16 C0 10.72 0 5.44 0 0 Z M16 113 C16 117.95 16 122.9 16 128 C21.28 128 26.56 128 32 128 C32 123.05 32 118.1 32 113 C26.72 113 21.44 113 16 113 Z " fill="#FE9800" transform="translate(240,29)"/>
<path d="M0 0 C5.28 0 10.56 0 16 0 C16 5.28 16 10.56 16 16 C21.28 16 26.56 16 32 16 C32 21.28 32 26.56 32 32 C37.28 32 42.56 32 48 32 C48 48.17 48 64.34 48 81 C42.72 81 37.44 81 32 81 C32 91.23 32 101.46 32 112 C58.4 112 84.8 112 112 112 C112 106.72 112 101.44 112 96 C117.28 96 122.56 96 128 96 C128 90.72 128 85.44 128 80 C143.84 80 159.68 80 176 80 C176 74.72 176 69.44 176 64 C197.12 64 218.24 64 240 64 C240 69.28 240 74.56 240 80 C250.56 80 261.12 80 272 80 C272 85.28 272 90.56 272 96 C282.56 96 293.12 96 304 96 C304 101.28 304 106.56 304 112 C340.96 112 377.92 112 416 112 C416 117.28 416 122.56 416 128 C421.28 128 426.56 128 432 128 C432 144.17 432 160.34 432 177 C426.72 177 421.44 177 416 177 C416 182.28 416 187.56 416 193 C410.72 193 405.44 193 400 193 C400 198.28 400 203.56 400 209 C394.72 209 389.44 209 384 209 C384 214.28 384 219.56 384 225 C378.72 225 373.44 225 368 225 C368 230.28 368 235.56 368 241 C362.72 241 357.44 241 352 241 C352 251.56 352 262.12 352 273 C346.72 273 341.44 273 336 273 C336 283.56 336 294.12 336 305 C330.72 305 325.44 305 320 305 C320 310.28 320 315.56 320 321 C314.72 321 309.44 321 304 321 C304 326.28 304 331.56 304 337 C298.72 337 293.44 337 288 337 C288 342.28 288 347.56 288 353 C282.72 353 277.44 353 272 353 C272 358.28 272 363.56 272 369 C261.44 369 250.88 369 240 369 C240 358.44 240 347.88 240 337 C234.72 337 229.44 337 224 337 C224 331.72 224 326.44 224 321 C218.72 321 213.44 321 208 321 C208 299.88 208 278.76 208 257 C213.28 257 218.56 257 224 257 C224 246.44 224 235.88 224 225 C218.72 225 213.44 225 208 225 C208 219.72 208 214.44 208 209 C202.72 209 197.44 209 192 209 C192 203.72 192 198.44 192 193 C176.16 193 160.32 193 144 193 C144 187.72 144 182.44 144 177 C133.44 177 122.88 177 112 177 C112 171.72 112 166.44 112 161 C101.44 161 90.88 161 80 161 C80 150.44 80 139.88 80 129 C74.72 129 69.44 129 64 129 C64 134.28 64 139.56 64 145 C58.72 145 53.44 145 48 145 C48 150.28 48 155.56 48 161 C42.72 161 37.44 161 32 161 C32 176.84 32 192.68 32 209 C26.72 209 21.44 209 16 209 C16 182.6 16 156.2 16 129 C0.16 129 -15.68 129 -32 129 C-32 123.72 -32 118.44 -32 113 C-37.28 113 -42.56 113 -48 113 C-48 107.72 -48 102.44 -48 97 C-53.28 97 -58.56 97 -64 97 C-64 86.11 -64 75.22 -64 64 C-58.72 64 -53.44 64 -48 64 C-48 58.72 -48 53.44 -48 48 C-42.72 48 -37.44 48 -32 48 C-32 42.72 -32 37.44 -32 32 C-26.72 32 -21.44 32 -16 32 C-16 26.72 -16 21.44 -16 16 C-10.72 16 -5.44 16 0 16 C0 10.72 0 5.44 0 0 Z M16 113 C16 117.95 16 122.9 16 128 C21.28 128 26.56 128 32 128 C32 123.05 32 118.1 32 113 C26.72 113 21.44 113 16 113 Z " fill="#FE9800" transform="translate(240,29)"/>
<path d="M0 0 C26.4 0 52.8 0 80 0 C80 5.28 80 10.56 80 16 C85.28 16 90.56 16 96 16 C96 21.61 96 27.22 96 33 C90.72 33 85.44 33 80 33 C80 27.72 80 22.44 80 17 C53.6 17 27.2 17 0 17 C0 22.28 0 27.56 0 33 C-10.56 33 -21.12 33 -32 33 C-32 59.4 -32 85.8 -32 113 C-26.72 113 -21.44 113 -16 113 C-16 107.72 -16 102.44 -16 97 C-10.72 97 -5.44 97 0 97 C0 91.72 0 86.44 0 81 C5.28 81 10.56 81 16 81 C16 75.72 16 70.44 16 65 C21.28 65 26.56 65 32 65 C32 80.84 32 96.68 32 113 C37.28 113 42.56 113 48 113 C48 107.72 48 102.44 48 97 C53.28 97 58.56 97 64 97 C64 91.72 64 86.44 64 81 C69.28 81 74.56 81 80 81 C80 86.28 80 91.56 80 97 C85.28 97 90.56 97 96 97 C96 112.51 96 128.02 96 144 C90.72 144 85.44 144 80 144 C80 149.28 80 154.56 80 160 C85.28 160 90.56 160 96 160 C96 160.33 96 160.66 96 161 C85.44 161 74.88 161 64 161 C64 165.95 64 170.9 64 176 C69.28 176 74.56 176 80 176 C80 176.33 80 176.66 80 177 C69.44 177 58.88 177 48 177 C48 181.95 48 186.9 48 192 C53.28 192 58.56 192 64 192 C64 192.33 64 192.66 64 193 C53.44 193 42.88 193 32 193 C32 224.35 32 255.7 32 288 C42.56 288 53.12 288 64 288 C64 288.33 64 288.66 64 289 C58.72 289 53.44 289 48 289 C48 294.28 48 299.56 48 305 C16.32 305 -15.36 305 -48 305 C-48 299.72 -48 294.44 -48 289 C-53.28 289 -58.56 289 -64 289 C-64 283.72 -64 278.44 -64 273 C-69.28 273 -74.56 273 -80 273 C-80 262.44 -80 251.88 -80 241 C-85.28 241 -90.56 241 -96 241 C-96 230.44 -96 219.88 -96 209 C-101.28 209 -106.56 209 -112 209 C-112 182.27 -112 155.54 -112 128 C-106.72 128 -101.44 128 -96 128 C-96 112.16 -96 96.32 -96 80 C-90.72 80 -85.44 80 -80 80 C-80 74.72 -80 69.44 -80 64 C-74.72 64 -69.44 64 -64 64 C-64 58.72 -64 53.44 -64 48 C-58.72 48 -53.44 48 -48 48 C-48 42.72 -48 37.44 -48 32 C-42.72 32 -37.44 32 -32 32 C-32 26.72 -32 21.44 -32 16 C-21.44 16 -10.88 16 0 16 C0 10.72 0 5.44 0 0 Z " fill="#FE9800" transform="translate(128,301)"/>
<path d="M0 0 C5.28 0 10.56 0 16 0 C16 10.56 16 21.12 16 32 C26.56 32 37.12 32 48 32 C48 37.28 48 42.56 48 48 C58.56 48 69.12 48 80 48 C80 53.28 80 58.56 80 64 C95.84 64 111.68 64 128 64 C128 69.28 128 74.56 128 80 C133.28 80 138.56 80 144 80 C144 85.28 144 90.56 144 96 C149.28 96 154.56 96 160 96 C160 106.56 160 117.12 160 128 C154.72 128 149.44 128 144 128 C144 149.12 144 170.24 144 192 C149.28 192 154.56 192 160 192 C160 197.28 160 202.56 160 208 C165.28 208 170.56 208 176 208 C176 223.84 176 239.68 176 256 C165.44 256 154.88 256 144 256 C144 277.12 144 298.24 144 320 C138.72 320 133.44 320 128 320 C128 309.44 128 298.88 128 288 C122.72 288 117.44 288 112 288 C112 282.72 112 277.44 112 272 C106.72 272 101.44 272 96 272 C96 266.72 96 261.44 96 256 C90.72 256 85.44 256 80 256 C80 250.72 80 245.44 80 240 C74.72 240 69.44 240 64 240 C64 234.72 64 229.44 64 224 C58.72 224 53.44 224 48 224 C48 213.44 48 202.88 48 192 C37.44 192 26.88 192 16 192 C16 186.72 16 181.44 16 176 C10.72 176 5.44 176 0 176 C0 170.72 0 165.44 0 160 C-5.28 160 -10.56 160 -16 160 C-16 149.44 -16 138.88 -16 128 C-21.28 128 -26.56 128 -32 128 C-32 96.32 -32 64.64 -32 32 C-26.72 32 -21.44 32 -16 32 C-16 26.72 -16 21.44 -16 16 C-10.72 16 -5.44 16 0 16 C0 10.72 0 5.44 0 0 Z " fill="#FEFEFE" transform="translate(304,158)"/>
<path d="M0 0 C5.28 0 10.56 0 16 0 C16 5.28 16 10.56 16 16 C21.28 16 26.56 16 32 16 C32 21.28 32 26.56 32 32 C37.28 32 42.56 32 48 32 C48 48.17 48 64.34 48 81 C42.72 81 37.44 81 32 81 C32 91.23 32 101.46 32 112 C58.4 112 84.8 112 112 112 C112 106.72 112 101.44 112 96 C117.28 96 122.56 96 128 96 C128 90.72 128 85.44 128 80 C143.84 80 159.68 80 176 80 C176 74.72 176 69.44 176 64 C197.12 64 218.24 64 240 64 C240 69.28 240 74.56 240 80 C250.56 80 261.12 80 272 80 C272 85.28 272 90.56 272 96 C282.56 96 293.12 96 304 96 C304 101.28 304 106.56 304 112 C340.96 112 377.92 112 416 112 C416 117.28 416 122.56 416 128 C421.28 128 426.56 128 432 128 C432 144.17 432 160.34 432 177 C426.72 177 421.44 177 416 177 C416 182.28 416 187.56 416 193 C410.72 193 405.44 193 400 193 C400 198.28 400 203.56 400 209 C394.72 209 389.44 209 384 209 C384 214.28 384 219.56 384 225 C378.72 225 373.44 225 368 225 C368 230.28 368 235.56 368 241 C362.72 241 357.44 241 352 241 C352 251.56 352 262.12 352 273 C346.72 273 341.44 273 336 273 C336 257.16 336 241.32 336 225 C341.28 225 346.56 225 352 225 C352 219.72 352 214.44 352 209 C357.28 209 362.56 209 368 209 C368 203.72 368 198.44 368 193 C373.28 193 378.56 193 384 193 C384 187.72 384 182.44 384 177 C389.28 177 394.56 177 400 177 C400 166.44 400 155.88 400 145 C384.16 145 368.32 145 352 145 C352 150.28 352 155.56 352 161 C341.44 161 330.88 161 320 161 C320 150.44 320 139.88 320 129 C314.72 129 309.44 129 304 129 C304 123.72 304 118.44 304 113 C293.44 113 282.88 113 272 113 C272 107.72 272 102.44 272 97 C261.44 97 250.88 97 240 97 C240 91.72 240 86.44 240 81 C218.88 81 197.76 81 176 81 C176 86.28 176 91.56 176 97 C160.16 97 144.32 97 128 97 C128 102.28 128 107.56 128 113 C122.72 113 117.44 113 112 113 C112 118.28 112 123.56 112 129 C96.16 129 80.32 129 64 129 C64 134.28 64 139.56 64 145 C58.72 145 53.44 145 48 145 C48 150.28 48 155.56 48 161 C42.72 161 37.44 161 32 161 C32 176.84 32 192.68 32 209 C26.72 209 21.44 209 16 209 C16 182.6 16 156.2 16 129 C0.16 129 -15.68 129 -32 129 C-32 123.72 -32 118.44 -32 113 C-37.28 113 -42.56 113 -48 113 C-48 107.72 -48 102.44 -48 97 C-53.28 97 -58.56 97 -64 97 C-64 86.11 -64 75.22 -64 64 C-58.72 64 -53.44 64 -48 64 C-48 58.72 -48 53.44 -48 48 C-42.72 48 -37.44 48 -32 48 C-32 42.72 -32 37.44 -32 32 C-26.72 32 -21.44 32 -16 32 C-16 26.72 -16 21.44 -16 16 C-10.72 16 -5.44 16 0 16 C0 10.72 0 5.44 0 0 Z M16 113 C16 117.95 16 122.9 16 128 C21.28 128 26.56 128 32 128 C32 123.05 32 118.1 32 113 C26.72 113 21.44 113 16 113 Z " fill="#020100" transform="translate(240,29)"/>
<path d="M0 0 C5.28 0 10.56 0 16 0 C16 36.63 16 73.26 16 111 C21.28 111 26.56 111 32 111 C32 148.29 32 185.58 32 224 C26.72 224 21.44 224 16 224 C16 229.28 16 234.56 16 240 C-57.92 240 -131.84 240 -208 240 C-208 234.72 -208 229.44 -208 224 C-181.6 224 -155.2 224 -128 224 C-128 218.72 -128 213.44 -128 208 C-117.44 208 -106.88 208 -96 208 C-96 202.72 -96 197.44 -96 192 C-101.28 192 -106.56 192 -112 192 C-112 186.72 -112 181.44 -112 176 C-106.72 176 -101.44 176 -96 176 C-96 165.44 -96 154.88 -96 144 C-90.72 144 -85.44 144 -80 144 C-80 154.56 -80 165.12 -80 176 C-74.72 176 -69.44 176 -64 176 C-64 160.16 -64 144.32 -64 128 C-58.72 128 -53.44 128 -48 128 C-48 149.12 -48 170.24 -48 192 C-37.44 192 -26.88 192 -16 192 C-16 186.72 -16 181.44 -16 176 C-5.44 176 5.12 176 16 176 C16 154.88 16 133.76 16 112 C10.72 112 5.44 112 0 112 C0 75.04 0 38.08 0 0 Z " fill="#000000" transform="translate(448,414)"/>
<path d="M0 0 C26.4 0 52.8 0 80 0 C80 5.28 80 10.56 80 16 C74.72 16 69.44 16 64 16 C64 26.56 64 37.12 64 48 C69.28 48 74.56 48 80 48 C80 53.28 80 58.56 80 64 C74.72 64 69.44 64 64 64 C64 69.28 64 74.56 64 80 C58.72 80 53.44 80 48 80 C48 85.28 48 90.56 48 96 C42.72 96 37.44 96 32 96 C32 80.16 32 64.32 32 48 C26.72 48 21.44 48 16 48 C16 53.28 16 58.56 16 64 C10.72 64 5.44 64 0 64 C0 69.28 0 74.56 0 80 C-5.28 80 -10.56 80 -16 80 C-16 85.28 -16 90.56 -16 96 C-21.28 96 -26.56 96 -32 96 C-32 69.6 -32 43.2 -32 16 C-21.44 16 -10.88 16 0 16 C0 10.72 0 5.44 0 0 Z " fill="#FEFEFD" transform="translate(128,318)"/>
<path d="M0 0 C5.28 0 10.56 0 16 0 C16 5.28 16 10.56 16 16 C21.28 16 26.56 16 32 16 C32 21.28 32 26.56 32 32 C37.28 32 42.56 32 48 32 C48 48.17 48 64.34 48 81 C26.88 81 5.76 81 -16 81 C-16 86.28 -16 91.56 -16 97 C-31.84 97 -47.68 97 -64 97 C-64 86.11 -64 75.22 -64 64 C-58.72 64 -53.44 64 -48 64 C-48 58.72 -48 53.44 -48 48 C-42.72 48 -37.44 48 -32 48 C-32 42.72 -32 37.44 -32 32 C-26.72 32 -21.44 32 -16 32 C-16 26.72 -16 21.44 -16 16 C-10.72 16 -5.44 16 0 16 C0 10.72 0 5.44 0 0 Z " fill="#FFFF00" transform="translate(240,29)"/>
<path d="M0 0 C31.68 0 63.36 0 96 0 C96 21.12 96 42.24 96 64 C90.72 64 85.44 64 80 64 C80 69.28 80 74.56 80 80 C74.72 80 69.44 80 64 80 C64 85.28 64 90.56 64 96 C58.72 96 53.44 96 48 96 C48 101.28 48 106.56 48 112 C42.72 112 37.44 112 32 112 C32 122.56 32 133.12 32 144 C26.72 144 21.44 144 16 144 C16 128.16 16 112.32 16 96 C21.28 96 26.56 96 32 96 C32 90.72 32 85.44 32 80 C37.28 80 42.56 80 48 80 C48 74.72 48 69.44 48 64 C53.28 64 58.56 64 64 64 C64 58.72 64 53.44 64 48 C69.28 48 74.56 48 80 48 C80 37.44 80 26.88 80 16 C64.16 16 48.32 16 32 16 C32 21.28 32 26.56 32 32 C21.44 32 10.88 32 0 32 C0 21.44 0 10.88 0 0 Z " fill="#000000" transform="translate(560,158)"/>
<path d="M0 0 C26.4 0 52.8 0 80 0 C80 5.28 80 10.56 80 16 C85.28 16 90.56 16 96 16 C96 21.61 96 27.22 96 33 C90.72 33 85.44 33 80 33 C80 27.72 80 22.44 80 17 C53.6 17 27.2 17 0 17 C0 22.28 0 27.56 0 33 C-10.56 33 -21.12 33 -32 33 C-32 38.28 -32 43.56 -32 49 C-37.28 49 -42.56 49 -48 49 C-48 54.28 -48 59.56 -48 65 C-53.28 65 -58.56 65 -64 65 C-64 70.28 -64 75.56 -64 81 C-69.28 81 -74.56 81 -80 81 C-80 96.84 -80 112.68 -80 129 C-85.28 129 -90.56 129 -96 129 C-96 155.4 -96 181.8 -96 209 C-101.28 209 -106.56 209 -112 209 C-112 182.27 -112 155.54 -112 128 C-106.72 128 -101.44 128 -96 128 C-96 112.16 -96 96.32 -96 80 C-90.72 80 -85.44 80 -80 80 C-80 74.72 -80 69.44 -80 64 C-74.72 64 -69.44 64 -64 64 C-64 58.72 -64 53.44 -64 48 C-58.72 48 -53.44 48 -48 48 C-48 42.72 -48 37.44 -48 32 C-42.72 32 -37.44 32 -32 32 C-32 26.72 -32 21.44 -32 16 C-21.44 16 -10.88 16 0 16 C0 10.72 0 5.44 0 0 Z " fill="#020201" transform="translate(128,301)"/>
<path d="M0 0 C5.28 0 10.56 0 16 0 C16 31.68 16 63.36 16 96 C-10.4 96 -36.8 96 -64 96 C-64 90.72 -64 85.44 -64 80 C-53.44 80 -42.88 80 -32 80 C-32 74.72 -32 69.44 -32 64 C-37.28 64 -42.56 64 -48 64 C-48 58.72 -48 53.44 -48 48 C-42.72 48 -37.44 48 -32 48 C-32 37.44 -32 26.88 -32 16 C-26.72 16 -21.44 16 -16 16 C-16 26.56 -16 37.12 -16 48 C-10.72 48 -5.44 48 0 48 C0 32.16 0 16.32 0 0 Z " fill="#000000" transform="translate(384,542)"/>
<path d="M0 0 C5.28 0 10.56 0 16 0 C16 10.23 16 20.46 16 31 C21.28 31 26.56 31 32 31 C32 41.56 32 52.12 32 63 C37.28 63 42.56 63 48 63 C48 68.28 48 73.56 48 79 C58.56 79 69.12 79 80 79 C80 73.72 80 68.44 80 63 C90.56 63 101.12 63 112 63 C112 57.72 112 52.44 112 47 C122.56 47 133.12 47 144 47 C144 36.77 144 26.54 144 16 C149.28 16 154.56 16 160 16 C160 26.56 160 37.12 160 48 C154.72 48 149.44 48 144 48 C144 53.28 144 58.56 144 64 C133.44 64 122.88 64 112 64 C112 69.28 112 74.56 112 80 C101.44 80 90.88 80 80 80 C80 85.28 80 90.56 80 96 C69.44 96 58.88 96 48 96 C48 101.28 48 106.56 48 112 C42.72 112 37.44 112 32 112 C32 116.95 32 121.9 32 127 C26.72 127 21.44 127 16 127 C16 121.72 16 116.44 16 111 C21.28 111 26.56 111 32 111 C32 95.49 32 79.98 32 64 C26.72 64 21.44 64 16 64 C16 53.44 16 42.88 16 32 C10.72 32 5.44 32 0 32 C0 21.44 0 10.88 0 0 Z " fill="#040200" transform="translate(192,334)"/>
<path d="M0 0 C5.28 0 10.56 0 16 0 C16 10.56 16 21.12 16 32 C31.84 32 47.68 32 64 32 C64 37.28 64 42.56 64 48 C-9.92 48 -83.84 48 -160 48 C-160 42.72 -160 37.44 -160 32 C-107.2 32 -54.4 32 0 32 C0 21.44 0 10.88 0 0 Z " fill="#000000" transform="translate(400,606)"/>
<path d="M0 0 C15.84 0 31.68 0 48 0 C48 10.56 48 21.12 48 32 C42.72 32 37.44 32 32 32 C32 37.28 32 42.56 32 48 C26.72 48 21.44 48 16 48 C16 53.28 16 58.56 16 64 C10.72 64 5.44 64 0 64 C0 69.28 0 74.56 0 80 C-5.28 80 -10.56 80 -16 80 C-16 69.44 -16 58.88 -16 48 C-21.28 48 -26.56 48 -32 48 C-32 37.44 -32 26.88 -32 16 C-21.44 16 -10.88 16 0 16 C0 10.72 0 5.44 0 0 Z " fill="#FDFDFD" transform="translate(592,174)"/>
<path d="M0 0 C5.28 0 10.56 0 16 0 C16 5.28 16 10.56 16 16 C21.28 16 26.56 16 32 16 C32 21.28 32 26.56 32 32 C37.28 32 42.56 32 48 32 C48 48.17 48 64.34 48 81 C42.72 81 37.44 81 32 81 C32 65.16 32 49.32 32 33 C26.72 33 21.44 33 16 33 C16 27.72 16 22.44 16 17 C10.72 17 5.44 17 0 17 C0 22.28 0 27.56 0 33 C-5.28 33 -10.56 33 -16 33 C-16 48.51 -16 64.02 -16 80 C-21.28 80 -26.56 80 -32 80 C-32 75.05 -32 70.1 -32 65 C-37.28 65 -42.56 65 -48 65 C-48 75.56 -48 86.12 -48 97 C-53.28 97 -58.56 97 -64 97 C-64 86.11 -64 75.22 -64 64 C-58.72 64 -53.44 64 -48 64 C-48 58.72 -48 53.44 -48 48 C-42.72 48 -37.44 48 -32 48 C-32 42.72 -32 37.44 -32 32 C-26.72 32 -21.44 32 -16 32 C-16 26.72 -16 21.44 -16 16 C-10.72 16 -5.44 16 0 16 C0 10.72 0 5.44 0 0 Z " fill="#010100" transform="translate(240,29)"/>
<path d="M0 0 C31.68 0 63.36 0 96 0 C96 15.84 96 31.68 96 48 C90.72 48 85.44 48 80 48 C80 37.44 80 26.88 80 16 C64.16 16 48.32 16 32 16 C32 21.28 32 26.56 32 32 C21.44 32 10.88 32 0 32 C0 21.44 0 10.88 0 0 Z " fill="#492804" transform="translate(560,158)"/>
<path d="M0 0 C21.12 0 42.24 0 64 0 C64 10.89 64 21.78 64 33 C37.6 33 11.2 33 -16 33 C-16 27.72 -16 22.44 -16 17 C-5.44 17 5.12 17 16 17 C16 11.72 16 6.44 16 1 C10.72 1 5.44 1 0 1 C0 0.67 0 0.34 0 0 Z " fill="#462501" transform="translate(336,605)"/>
<path d="M0 0 C10.56 0 21.12 0 32 0 C32 15.84 32 31.68 32 48 C16.16 48 0.32 48 -16 48 C-16 37.44 -16 26.88 -16 16 C-10.72 16 -5.44 16 0 16 C0 10.72 0 5.44 0 0 Z " fill="#472501" transform="translate(432,590)"/>
<path d="M0 0 C5.28 0 10.56 0 16 0 C16 5.28 16 10.56 16 16 C21.28 16 26.56 16 32 16 C32 21.28 32 26.56 32 32 C0.32 32 -31.36 32 -64 32 C-64 26.72 -64 21.44 -64 16 C-42.88 16 -21.76 16 0 16 C0 10.72 0 5.44 0 0 Z " fill="#000000" transform="translate(176,590)"/>
<path d="M0 0 C15.84 0 31.68 0 48 0 C48 10.56 48 21.12 48 32 C32.16 32 16.32 32 0 32 C0 21.44 0 10.88 0 0 Z " fill="#EA9A9A" transform="translate(384,238)"/>
<path d="M0 0 C5.28 0 10.56 0 16 0 C16 31.35 16 62.7 16 95 C10.72 95 5.44 95 0 95 C0 63.65 0 32.3 0 0 Z " fill="#000000" transform="translate(160,494)"/>
<path d="M0 0 C10.56 0 21.12 0 32 0 C32 4.95 32 9.9 32 15 C37.28 15 42.56 15 48 15 C48 25.56 48 36.12 48 47 C42.72 47 37.44 47 32 47 C32 36.77 32 26.54 32 16 C21.44 16 10.88 16 0 16 C0 10.72 0 5.44 0 0 Z " fill="#050300" transform="translate(320,462)"/>
<path d="M0 0 C5.28 0 10.56 0 16 0 C16 4.95 16 9.9 16 15 C37.12 15 58.24 15 80 15 C80 15.33 80 15.66 80 16 C64.16 16 48.32 16 32 16 C32 21.28 32 26.56 32 32 C21.44 32 10.88 32 0 32 C0 21.44 0 10.88 0 0 Z " fill="#F3F300" transform="translate(192,94)"/>
<path d="M0 0 C10.56 0 21.12 0 32 0 C32 4.95 32 9.9 32 15 C37.28 15 42.56 15 48 15 C48 20.61 48 26.22 48 32 C42.72 32 37.44 32 32 32 C32 26.72 32 21.44 32 16 C21.44 16 10.88 16 0 16 C0 10.72 0 5.44 0 0 Z " fill="#000000" transform="translate(384,174)"/>
<path d="M0 0 C5.28 0 10.56 0 16 0 C16 15.84 16 31.68 16 48 C10.72 48 5.44 48 0 48 C0 32.16 0 16.32 0 0 Z " fill="#000000" transform="translate(272,238)"/>
<path d="M0 0 C10.56 0 21.12 0 32 0 C32 5.28 32 10.56 32 16 C21.44 16 10.88 16 0 16 C0 10.72 0 5.44 0 0 Z " fill="#000000" transform="translate(208,622)"/>
<path d="M0 0 C10.56 0 21.12 0 32 0 C32 5.28 32 10.56 32 16 C21.44 16 10.88 16 0 16 C0 10.72 0 5.44 0 0 Z " fill="#000000" transform="translate(80,590)"/>
<path d="M0 0 C5.28 0 10.56 0 16 0 C16 10.56 16 21.12 16 32 C10.72 32 5.44 32 0 32 C0 21.44 0 10.88 0 0 Z " fill="#000000" transform="translate(48,542)"/>
<path d="M0 0 C5.28 0 10.56 0 16 0 C16 10.56 16 21.12 16 32 C10.72 32 5.44 32 0 32 C0 21.44 0 10.88 0 0 Z " fill="#000000" transform="translate(32,510)"/>
<path d="M0 0 C10.56 0 21.12 0 32 0 C32 5.28 32 10.56 32 16 C21.44 16 10.88 16 0 16 C0 10.72 0 5.44 0 0 Z " fill="#000000" transform="translate(480,382)"/>
<path d="M0 0 C5.28 0 10.56 0 16 0 C16 10.56 16 21.12 16 32 C10.72 32 5.44 32 0 32 C0 21.44 0 10.88 0 0 Z " fill="#000000" transform="translate(560,302)"/>
<path d="M0 0 C5.28 0 10.56 0 16 0 C16 10.56 16 21.12 16 32 C10.72 32 5.44 32 0 32 C0 21.44 0 10.88 0 0 Z " fill="#000000" transform="translate(288,286)"/>
<path d="M0 0 C5.28 0 10.56 0 16 0 C16 10.56 16 21.12 16 32 C10.72 32 5.44 32 0 32 C0 21.44 0 10.88 0 0 Z " fill="#000000" transform="translate(576,270)"/>
<path d="M0 0 C10.56 0 21.12 0 32 0 C32 5.28 32 10.56 32 16 C21.44 16 10.88 16 0 16 C0 10.72 0 5.44 0 0 Z " fill="#462501" transform="translate(224,126)"/>
<path d="M0 0 C5.28 0 10.56 0 16 0 C16 10.23 16 20.46 16 31 C10.72 31 5.44 31 0 31 C0 20.77 0 10.54 0 0 Z " fill="#000000" transform="translate(368,510)"/>
<path d="M0 0 C15.84 0 31.68 0 48 0 C48 0.33 48 0.66 48 1 C37.44 1 26.88 1 16 1 C16 6.28 16 11.56 16 17 C10.72 17 5.44 17 0 17 C0 11.39 0 5.78 0 0 Z " fill="#0E0C09" transform="translate(80,333)"/>
<path d="M0 0 C15.84 0 31.68 0 48 0 C48 5.61 48 11.22 48 17 C42.72 17 37.44 17 32 17 C32 11.72 32 6.44 32 1 C21.44 1 10.88 1 0 1 C0 0.67 0 0.34 0 0 Z " fill="#160D00" transform="translate(384,189)"/>
<path d="M0 0 C5.28 0 10.56 0 16 0 C16 5.28 16 10.56 16 16 C10.72 16 5.44 16 0 16 C0 10.72 0 5.44 0 0 Z " fill="#000000" transform="translate(64,574)"/>
<path d="M0 0 C5.28 0 10.56 0 16 0 C16 5.28 16 10.56 16 16 C10.72 16 5.44 16 0 16 C0 10.72 0 5.44 0 0 Z " fill="#000000" transform="translate(464,398)"/>
<path d="M0 0 C5.28 0 10.56 0 16 0 C16 5.28 16 10.56 16 16 C10.72 16 5.44 16 0 16 C0 10.72 0 5.44 0 0 Z " fill="#FFFCF9" transform="translate(208,398)"/>
<path d="M0 0 C5.28 0 10.56 0 16 0 C16 5.28 16 10.56 16 16 C10.72 16 5.44 16 0 16 C0 10.72 0 5.44 0 0 Z " fill="#000000" transform="translate(512,366)"/>
<path d="M0 0 C5.28 0 10.56 0 16 0 C16 5.28 16 10.56 16 16 C10.72 16 5.44 16 0 16 C0 10.72 0 5.44 0 0 Z " fill="#000000" transform="translate(528,350)"/>
<path d="M0 0 C5.28 0 10.56 0 16 0 C16 5.28 16 10.56 16 16 C10.72 16 5.44 16 0 16 C0 10.72 0 5.44 0 0 Z " fill="#000000" transform="translate(544,334)"/>
<path d="M0 0 C5.28 0 10.56 0 16 0 C16 5.28 16 10.56 16 16 C10.72 16 5.44 16 0 16 C0 10.72 0 5.44 0 0 Z " fill="#000000" transform="translate(320,334)"/>
<path d="M0 0 C5.28 0 10.56 0 16 0 C16 5.28 16 10.56 16 16 C10.72 16 5.44 16 0 16 C0 10.72 0 5.44 0 0 Z " fill="#000000" transform="translate(304,318)"/>
<path d="M0 0 C5.28 0 10.56 0 16 0 C16 5.28 16 10.56 16 16 C10.72 16 5.44 16 0 16 C0 10.72 0 5.44 0 0 Z " fill="#462501" transform="translate(576,254)"/>
<path d="M0 0 C5.28 0 10.56 0 16 0 C16 5.28 16 10.56 16 16 C10.72 16 5.44 16 0 16 C0 10.72 0 5.44 0 0 Z " fill="#462501" transform="translate(592,238)"/>
<path d="M0 0 C5.28 0 10.56 0 16 0 C16 5.28 16 10.56 16 16 C10.72 16 5.44 16 0 16 C0 10.72 0 5.44 0 0 Z " fill="#462501" transform="translate(608,222)"/>
<path d="M0 0 C5.28 0 10.56 0 16 0 C16 5.28 16 10.56 16 16 C10.72 16 5.44 16 0 16 C0 10.72 0 5.44 0 0 Z " fill="#462501" transform="translate(624,206)"/>
<path d="M0 0 C5.28 0 10.56 0 16 0 C16 4.95 16 9.9 16 15 C10.72 15 5.44 15 0 15 C0 10.05 0 5.1 0 0 Z " fill="#000000" transform="translate(176,478)"/>
<path d="M0 0 C5.28 0 10.56 0 16 0 C16 4.95 16 9.9 16 15 C10.72 15 5.44 15 0 15 C0 10.05 0 5.1 0 0 Z " fill="#000000" transform="translate(192,462)"/>
<path d="M0 0 C5.28 0 10.56 0 16 0 C16 4.95 16 9.9 16 15 C10.72 15 5.44 15 0 15 C0 10.05 0 5.1 0 0 Z " fill="#000000" transform="translate(304,446)"/>
</svg>
